<?xml version="1.0" encoding="UTF-8"?>
<svg width="1024px" height="1024px" viewBox="0 0 1024 1024" version="1.1" xmlns="http://www.w3.org/2000/svg" xmlns:xlink="http://www.w3.org/1999/xlink">
    <title>Expense Pro</title>
    <defs>
        <linearGradient x1="92.0959732%" y1="7.97987724%" x2="7.98025473%" y2="92.095617%" id="linearGradient-1">
            <stop stop-color="#097362" offset="0%"></stop>
            <stop stop-color="#045243" offset="100%"></stop>
        </linearGradient>
    </defs>
    <g id="Page-1" stroke="none" stroke-width="1" fill="none" fill-rule="evenodd">
        <g id="Rectangle_3_copy_12_xA0_Image-(5)" transform="translate(0, 0)" fill-rule="nonzero">
            <path d="M747.480365,0 L276.522666,0 C123.803655,0 0,123.692252 0,276.274095 L0,746.808919 C0,899.388489 123.803655,1023.08301 276.522666,1023.08301 L747.480365,1023.08301 C900.199377,1023.08301 1024,899.388489 1024,746.808919 L1024,276.274095 C1024,123.692252 900.199377,0 747.480365,0 Z" id="Path" fill="url(#linearGradient-1)"></path>
            <path d="M297.049501,532.491216 C277.482091,552.422389 259.72819,570.446838 241.97429,588.471287 C213.911502,490.911607 239.969805,367.317874 330.171624,286.733793 C422.854609,204.052013 529.760721,184.692251 646.593012,225.604204 C704.723073,246.012815 750.730738,284.159413 787.099444,333.653895 C795.594822,345.288244 803.991682,357.304543 808.955529,371.227566 C792.154232,388.012191 775.837953,404.224646 759.605035,420.436344 C702.623101,477.178801 645.73438,533.826529 588.749414,590.568986 C583.404374,595.90948 583.308886,595.90948 578.058576,590.568986 C554.386708,566.727363 530.810329,542.981227 507.138461,519.235849 C505.611415,517.709561 503.797906,516.565224 502.365589,515.516374 C452.539931,565.487538 403.191711,614.982778 353.652516,664.668237 C375.797337,699.381064 450.821909,754.502504 539.687658,752.309317 C616.143788,750.497323 677.042236,718.740826 726.008505,661.902881 C741.662433,677.446922 756.553217,692.324065 772.306422,708.05984 C710.545553,777.580983 633.993176,815.821553 539.974121,816.58697 C446.049795,817.344809 368.924493,780.157636 305.449391,711.110901 C298.195354,718.263388 290.845829,725.511362 283.400058,732.854825 C278.245993,737.908855 273.186658,743.058373 268.128081,748.208649 C265.455182,750.974004 263.355209,750.974004 260.58758,748.208649 C247.987744,735.333717 235.101445,722.650519 222.40688,709.871833 C221.165539,708.632008 220.497883,706.914745 219.447517,705.293726 C312.704187,612.121935 405.482659,519.330579 498.26189,426.635469 C499.59796,425.300156 501.697933,424.727988 505.038488,422.915994 C531.287767,449.427485 557.441558,476.034464 583.308886,502.164762 C630.652621,454.958954 677.806138,407.943363 725.245361,360.642067 C664.919839,289.308931 587.604319,259.650133 495.398015,274.050595 C433.736423,283.681974 384.006252,316.39259 345.825552,365.887073 C307.358388,415.668019 291.990924,472.411234 297.049501,532.491216 Z" id="Path" fill="#FFFFFF"></path>
        </g>
    </g>
</svg>